<?xml version="1.0" encoding="UTF-8" standalone="no"?>
<svg xmlns="http://www.w3.org/2000/svg" viewBox="0 0 500 500">
  <defs>
    <linearGradient id="goldGradient" x1="0%" y1="0%" x2="100%" y2="100%">
      <stop offset="0%" style="stop-color:#FFD700"/>
      <stop offset="100%" style="stop-color:#B8860B"/>
    </linearGradient>
    <filter id="glow">
      <feGaussianBlur stdDeviation="3" result="coloredBlur"/>
      <feMerge>
        <feMergeNode in="coloredBlur"/>
        <feMergeNode in="SourceGraphic"/>
      </feMerge>
    </filter>
  </defs>
  
  <style>
    .robot-part { fill: #1a1a1a; stroke: url(#goldGradient); stroke-width: 2; }
    .eye { fill: url(#goldGradient); filter: url(#glow); }
    .circuit { fill: none; stroke: url(#goldGradient); stroke-width: 1; opacity: 0.5; }
    .highlight { fill: none; stroke: #FFD700; stroke-width: 1; opacity: 0.3; }
  </style>
  
  <!-- Background Circuit Pattern -->
  <g class="circuit">
    <path d="M50,250 H150 M350,250 H450"/>
    <path d="M200,50 V150 M200,350 V450"/>
    <circle cx="250" cy="250" r="150" />
    <circle cx="250" cy="250" r="100" />
  </g>
  
  <!-- Robot Head -->
  <g transform="translate(150, 100)">
    <!-- Head Base -->
    <path class="robot-part" d="M0,0 h200 a20,20 0 0 1 20,20 v160 a20,20 0 0 1 -20,20 h-200 a20,20 0 0 1 -20,-20 v-160 a20,20 0 0 1 20,-20 z"/>
    
    <!-- Eyes -->
    <circle class="eye" cx="70" cy="80" r="20"/>
    <circle class="eye" cx="130" cy="80" r="20"/>
    
    <!-- Antenna -->
    <path class="robot-part" d="M100,-20 L100,-40 L120,-30 Z"/>
    <circle class="eye" cx="100" cy="-40" r="5"/>
    
    <!-- Face Details -->
    <path class="highlight" d="M60,140 h80" stroke-linecap="round"/>
    <path class="circuit" d="M40,40 h120 M40,160 h120"/>
  </g>
  
  <!-- Robot Body -->
  <g transform="translate(125, 320)">
    <!-- Body Base -->
    <path class="robot-part" d="M0,0 h250 a20,20 0 0 1 20,20 v100 a20,20 0 0 1 -20,20 h-250 a20,20 0 0 1 -20,-20 v-100 a20,20 0 0 1 20,-20 z"/>
    
    <!-- Core -->
    <circle class="robot-part" cx="125" cy="70" r="30"/>
    <circle class="eye" cx="125" cy="70" r="20"/>
    
    <!-- Circuit Details -->
    <path class="circuit" d="M20,30 h210 M20,110 h210"/>
    <path class="circuit" d="M125,20 v100"/>
  </g>
  
  <!-- Arms -->
  <g class="robot-part">
    <!-- Left Arm -->
    <path d="M125,340 h-60 a10,10 0 0 1 -10,-10 v-40 a10,10 0 0 1 10,-10 h20"/>
    <!-- Right Arm -->
    <path d="M375,340 h60 a10,10 0 0 0 10,-10 v-40 a10,10 0 0 0 -10,-10 h-20"/>
  </g>
  
  <!-- Animation Elements -->
  <g class="highlight">
    <animateTransform
      attributeName="transform"
      type="rotate"
      from="0 250 250"
      to="360 250 250"
      dur="20s"
      repeatCount="indefinite"/>
    <circle cx="250" cy="250" r="200" stroke-dasharray="20,10"/>
  </g>
</svg>
